HIERARCHY
ROOT Hips
{
	OFFSET -3.958830 18.904000 13.208200
	CHANNELS 6 Xposition Yposition Zposition Zrotation Yrotation Xrotation 
	JOINT LHipJoint
	{
		OFFSET 0.000000 0.000000 0.000000
		CHANNELS 3 Zrotation Yrotation Xrotation
		JOINT LeftUpLeg
		{
			OFFSET 1.800000 -1.400000 0.085000
			CHANNELS 3 Zrotation Yrotation Xrotation
			JOINT LeftLeg
			{
				OFFSET 2.215000 -6.000000 0.000000
				CHANNELS 3 Zrotation Yrotation Xrotation
				JOINT LeftFoot
				{
					OFFSET 2.500000 -6.900000 0.000000
					CHANNELS 3 Zrotation Yrotation Xrotation
					JOINT LeftToeBase
					{
						OFFSET 0.200000 -0.500000 1.950000
						CHANNELS 3 Zrotation Yrotation Xrotation
						End Site
						{
							OFFSET 0.000000 0.000000 0.000000
						}
					}
				}
			}
		}
	}
	JOINT RHipJoint
	{
		OFFSET 0.000000 0.000000 0.000000
		CHANNELS 3 Zrotation Yrotation Xrotation
		JOINT RightUpLeg
		{
			OFFSET -1.800000 -1.400000 0.085000
			CHANNELS 3 Zrotation Yrotation Xrotation
			JOINT RightLeg
			{
				OFFSET -2.215000 -6.000000 0.000000
				CHANNELS 3 Zrotation Yrotation Xrotation
				JOINT RightFoot
				{
					OFFSET -2.500000 -6.900000 0.000000
					CHANNELS 3 Zrotation Yrotation Xrotation
					JOINT RightToeBase
					{
						OFFSET -0.200000 -0.500000 1.950000
						CHANNELS 3 Zrotation Yrotation Xrotation
						End Site
						{
							OFFSET 0.000000 0.000000 0.000000
						}
					}
				}
			}
		}
	}
	JOINT LowerBack
	{
		OFFSET 0.000000 0.000000 0.000000
		CHANNELS 3 Zrotation Yrotation Xrotation
		JOINT Spine
		{
			OFFSET -0.087000 1.940000 -0.288900
			CHANNELS 3 Zrotation Yrotation Xrotation
			JOINT Spine1
			{
				OFFSET 0.000000 1.950000 0.060000
				CHANNELS 3 Zrotation Yrotation Xrotation
				JOINT Neck
				{
					OFFSET 0.000000 0.000000 0.000000
					CHANNELS 3 Zrotation Yrotation Xrotation
					JOINT Neck1
					{
						OFFSET 0.000000 1.600000 0.340000
						CHANNELS 3 Zrotation Yrotation Xrotation
						JOINT Head
						{
							OFFSET 0.000000 1.667000 -0.240000
							CHANNELS 3 Zrotation Yrotation Xrotation
							End Site
							{
								OFFSET 0.000000 0.000000 0.000000
							}
						}
					}
				}
				JOINT LeftShoulder
				{
					OFFSET 0.000000 0.000000 0.000000
					CHANNELS 3 Zrotation Yrotation Xrotation
					JOINT LeftArm
					{
						OFFSET 2.700000 1.550000 -0.730000
						CHANNELS 3 Zrotation Yrotation Xrotation
						JOINT LeftForeArm
						{
							OFFSET 5.450000 0.000000 0.000000
							CHANNELS 3 Zrotation Yrotation Xrotation
							JOINT LeftHand
							{
								OFFSET 3.450000 0.000000 0.000000
								CHANNELS 3 Zrotation Yrotation Xrotation
								JOINT LeftHandIndex1
								{
									OFFSET 0.750000 0.000000 0.000000
									CHANNELS 3 Zrotation Yrotation Xrotation
									End Site
									{
										OFFSET 0.000000 0.000000 0.000000
									}
								}
							}
						}
					}
				}
				JOINT RightShoulder
				{
					OFFSET 0.000000 0.000000 0.000000
					CHANNELS 3 Zrotation Yrotation Xrotation
					JOINT RightArm
					{
						OFFSET -2.700000 1.550000 -0.730000
						CHANNELS 3 Zrotation Yrotation Xrotation
						JOINT RightForeArm
						{
							OFFSET -5.450000 0.000000 0.000000
							CHANNELS 3 Zrotation Yrotation Xrotation
							JOINT RightHand
							{
								OFFSET -3.450000 0.000000 0.000000
								CHANNELS 3 Zrotation Yrotation Xrotation
								JOINT RightHandIndex1
								{
									OFFSET -0.750000 0.000000 0.000000
									CHANNELS 3 Zrotation Yrotation Xrotation
									End Site
									{
										OFFSET 0.000000 0.000000 0.000000
									}
								}
							}
						}
					}
				}
			}
		}
	}
}
MOTION
Frames: 6
Frame Time: 0.016667
3.356850 17.614340 -1.677000 12.085138 -52.153822 -14.150111 -15.811314 10.768504 7.004842 7.800859 -12.683943 -62.938233 -11.925203 13.640288 43.938948 0.290439 8.616273 1.278858 0.457630 0.424080 0.452810 18.191915 -8.686402 2.013254 -14.949415 6.481762 -23.012741 9.689800 -13.054014 49.028024 -1.034660 -7.924941 1.496029 0.312980 -0.213860 0.065950 -2.615647 -3.440514 -9.121060 0.067540 6.607905 49.062743 4.547467 6.905103 7.049766 -1.314545 -11.306029 -10.002481 -22.454682 12.506227 25.629323 -14.259440 8.555070 -23.691070 -12.943478 -13.026319 3.486733 4.649465 0.476872 -4.186608 5.294286 -51.196932 -1.655787 -3.489217 3.155046 0.407470 -0.090520 0.225690 0.017590 14.863836 27.630072 6.121030 10.729908 24.615041 -7.611401 -139.985103 60.997511 -129.077991 2.166785 -1.639719 -0.086790 0.191780 -0.105800 -0.236090 
3.328890 17.529860 -1.677090 11.825742 -53.394494 -12.758101 -15.739331 11.113107 6.903297 6.461750 -10.958104 -62.915123 -9.383069 8.667542 29.558008 -0.260201 5.407752 2.371744 0.441180 0.409310 0.432570 18.154062 -9.149824 1.804436 -12.818988 5.325013 -19.673666 8.335099 -10.317506 41.889979 -0.709979 -6.512516 1.980801 0.308100 -0.181010 0.072890 -2.479044 -3.405704 -8.859372 -1.317650 7.925268 45.167113 5.324616 7.927323 7.573371 -1.292399 -10.747572 -10.158275 -21.212361 12.027270 26.855068 -13.502750 9.393080 -21.820150 -13.793999 -14.331796 3.725481 3.469059 -2.215454 -4.349875 12.614627 -43.390918 -3.455693 -3.507904 3.049973 0.376810 -0.056310 0.200870 0.026270 15.837292 29.050058 6.410232 10.356941 28.090109 -5.034102 -119.540087 64.289090 -103.879053 2.279609 -0.740946 -0.089740 0.175460 -0.106860 -0.229180 
3.309180 17.424550 -1.681590 12.265386 -53.732000 -11.657433 -15.746465 11.071755 7.021600 6.564506 -10.090932 -64.819383 -8.199317 6.651957 21.247706 -0.437757 4.024896 2.878437 0.433170 0.404210 0.414860 18.130238 -9.386802 1.601522 -11.549522 4.203002 -17.315529 7.093575 -8.633292 36.539346 -0.509111 -5.572693 2.318808 0.310180 -0.136880 0.090830 -2.419013 -3.152477 -8.797808 -2.793457 8.666377 41.376697 5.436896 8.315580 7.388110 -1.418891 -10.016188 -9.788271 -19.580442 11.623562 27.971961 -12.252000 9.855510 -20.058550 -14.477027 -15.750410 4.308801 1.880898 -4.900080 -4.360523 18.077866 -36.617734 -4.288576 -3.569092 2.982161 0.342040 -0.015020 0.175720 0.035890 16.939456 30.240622 5.348579 13.013510 30.470181 -5.638728 -98.780043 69.973525 -73.832513 1.440254 2.106271 -0.087110 0.166960 -0.101550 -0.217710 
3.290510 17.333540 -1.681650 11.681325 -53.282150 -10.589401 -15.779892 10.966152 7.242650 6.773218 -9.879015 -67.488987 -6.878934 6.454884 20.852619 -0.454519 3.943287 2.904813 0.421220 0.394070 0.398550 18.121983 -9.519107 1.379216 -10.111919 2.998627 -14.407529 5.269027 -7.176634 31.828323 -0.372322 -4.797570 2.617428 0.308040 -0.119180 0.089640 -2.379308 -2.958196 -8.776639 -3.247653 8.875770 39.347769 5.458825 8.607217 6.877209 -1.317365 -9.518444 -9.267859 -18.430850 11.430428 29.269610 -11.407180 10.067660 -19.548690 -15.527912 -16.848178 5.147868 -1.602153 -5.362818 -5.049426 25.990377 -35.460965 -6.712480 -3.598025 2.916852 0.341180 -0.004530 0.164720 0.034420 17.765821 31.938981 3.654250 17.476526 30.905763 -10.689860 -75.323543 77.589265 -53.600535 1.025997 1.613430 -0.095710 0.170230 -0.090650 -0.217640 
3.277380 17.272350 -1.689430 12.333698 -52.848007 -11.274824 -15.815426 10.733028 7.561507 8.158786 -10.046011 -70.487669 -7.261635 7.948766 27.073470 -0.330824 5.078976 2.486318 0.436100 0.410730 0.403600 18.143394 -9.556154 1.190730 -9.737369 2.231788 -12.293304 3.650008 -6.355381 29.348467 -0.324177 -4.442886 2.761169 0.322150 -0.114140 0.088690 -2.351236 -2.708416 -8.851355 -4.291506 9.107221 38.648073 4.867167 8.644087 7.364191 -1.221091 -8.990307 -9.448696 -17.214069 11.144510 30.260691 -10.482420 9.814340 -19.652380 -17.188472 -18.268094 5.411306 -4.402350 -5.427513 -6.477378 34.800054 -37.054548 -10.219493 -3.598981 2.859556 0.346110 -0.004750 0.164320 0.038320 19.319036 33.295859 4.043725 20.660128 32.873314 -10.617831 -60.134357 76.143636 -41.767877 1.320587 0.392679 -0.097900 0.179330 -0.093000 -0.218810 
3.272640 17.228460 -1.677560 12.599970 -52.956377 -12.481736 -15.849110 10.557726 7.799474 10.600222 -9.769969 -72.105234 -8.958962 10.954237 36.577786 -0.026906 7.164459 1.747453 0.449820 0.429130 0.423810 18.171158 -9.528120 1.033876 -9.419236 1.847134 -10.725644 2.278864 -5.949407 28.896260 -0.339024 -4.379825 2.795309 0.324490 -0.131830 0.098340 -2.291527 -2.566681 -8.945428 -5.192136 9.545715 39.428489 4.062221 9.056920 7.345664 -0.874535 -7.605556 -9.125965 -14.425448 10.808435 31.313012 -10.530610 10.414340 -19.988570 -21.005822 -18.889013 4.761689 -5.915601 -5.021104 -8.386569 44.368637 -43.378284 -16.117366 -3.596593 2.780728 0.346210 -0.006630 0.181900 0.042040 22.323391 33.086643 4.934416 24.480722 33.438736 -10.308376 -61.878902 78.006718 -44.704901 1.263740 0.656163 -0.086030 0.160850 -0.113290 -0.223080 
